<?xml version="1.0" encoding="UTF-8"?>
<svg id="a" xmlns="http://www.w3.org/2000/svg" version="1.1" viewBox="0 0 128 128">
  <!-- Generator: Adobe Illustrator 30.1.0, SVG Export Plug-In . SVG Version: 2.1.1 Build 136)  -->
  <defs>
    <style>
      .st0 {
        fill: none;
      }

      .st1 {
        fill: #cecece;
      }

      .st2 {
        fill: #f6c562;
      }
    </style>
  </defs>
  <path class="st1" d="M111.84,70.29c0,30.23-24.16,54.75-53.95,54.75S3.94,100.52,3.94,70.29,28.09,15.54,57.89,15.54c13.39,0,25.64,4.95,35.07,13.14l-7.62,7.73c-7.47-6.23-17.03-9.98-27.45-9.98-23.87,0-43.22,19.64-43.22,43.86s19.34,43.86,43.22,43.86,43.21-19.64,43.21-43.86c0-11.36-4.26-21.73-11.26-29.53l7.6-7.71c8.94,9.77,14.41,22.86,14.41,37.24h0Z"/>
  <path class="st0" d="M76.27,54.53l-7.3,7.41c1.71,2.32,2.72,5.22,2.72,8.35,0,7.73-6.18,14-13.8,14s-13.81-6.27-13.81-14,6.19-14,13.81-14c2.29,0,4.44.56,6.33,1.56l7.45-7.56c-3.9-2.78-8.66-4.42-13.79-4.42-13.3,0-24.07,10.94-24.07,24.42s10.77,24.42,24.07,24.42,24.05-10.94,24.05-24.42c0-6-2.13-11.51-5.68-15.76h.02Z"/>
  <path class="st0" d="M89.84,40.76l-7.6,7.71c5.06,5.81,8.13,13.46,8.13,21.82,0,18.21-14.55,32.96-32.49,32.96s-32.5-14.75-32.5-32.96,14.55-32.96,32.5-32.96c7.45,0,14.32,2.55,19.81,6.85l7.64-7.76c-7.47-6.23-17.03-9.98-27.45-9.98-23.87,0-43.22,19.64-43.22,43.86s19.34,43.86,43.22,43.86,43.21-19.64,43.21-43.86c0-11.36-4.26-21.73-11.26-29.53h.01Z"/>
  <path class="st0" d="M76.27,54.53l-7.3,7.41c1.71,2.32,2.72,5.22,2.72,8.35,0,7.73-6.18,14-13.8,14s-13.81-6.27-13.81-14,6.19-14,13.81-14c2.29,0,4.44.56,6.33,1.56l7.45-7.56c-3.9-2.78-8.66-4.42-13.79-4.42-13.3,0-24.07,10.94-24.07,24.42s10.77,24.42,24.07,24.42,24.05-10.94,24.05-24.42c0-6-2.13-11.51-5.68-15.76h.02Z"/>
  <path class="st0" d="M89.84,40.76l-7.6,7.71c5.06,5.81,8.13,13.46,8.13,21.82,0,18.21-14.55,32.96-32.49,32.96s-32.5-14.75-32.5-32.96,14.55-32.96,32.5-32.96c7.45,0,14.32,2.55,19.81,6.85l7.64-7.76c-7.47-6.23-17.03-9.98-27.45-9.98-23.87,0-43.22,19.64-43.22,43.86s19.34,43.86,43.22,43.86,43.21-19.64,43.21-43.86c0-11.36-4.26-21.73-11.26-29.53h.01Z"/>
  <path class="st1" d="M90.38,70.29c0,18.21-14.55,32.96-32.49,32.96s-32.5-14.75-32.5-32.96,14.55-32.96,32.5-32.96c7.45,0,14.32,2.55,19.81,6.85l-6.02,6.11c-3.9-2.78-8.66-4.42-13.79-4.42-13.3,0-24.07,10.94-24.07,24.42s10.77,24.42,24.07,24.42,24.05-10.94,24.05-24.42c0-6-2.13-11.51-5.68-15.76l5.97-6.06c5.06,5.81,8.13,13.46,8.13,21.82h.02Z"/>
  <path class="st0" d="M76.27,54.53l-7.3,7.41c1.71,2.32,2.72,5.22,2.72,8.35,0,7.73-6.18,14-13.8,14s-13.81-6.27-13.81-14,6.19-14,13.81-14c2.29,0,4.44.56,6.33,1.56l7.45-7.56c-3.9-2.78-8.66-4.42-13.79-4.42-13.3,0-24.07,10.94-24.07,24.42s10.77,24.42,24.07,24.42,24.05-10.94,24.05-24.42c0-6-2.13-11.51-5.68-15.76h.02Z"/>
  <path class="st0" d="M76.27,54.53l-7.3,7.41c1.71,2.32,2.72,5.22,2.72,8.35,0,7.73-6.18,14-13.8,14s-13.81-6.27-13.81-14,6.19-14,13.81-14c2.29,0,4.44.56,6.33,1.56l7.45-7.56c-3.9-2.78-8.66-4.42-13.79-4.42-13.3,0-24.07,10.94-24.07,24.42s10.77,24.42,24.07,24.42,24.05-10.94,24.05-24.42c0-6-2.13-11.51-5.68-15.76h.02Z"/>
  <path class="st2" d="M71.69,70.29c0,7.73-6.18,14-13.8,14s-13.81-6.27-13.81-14,6.19-14,13.81-14c2.29,0,4.44.56,6.33,1.56l-2.96,3,4.46,4.38,3.24-3.29c1.71,2.32,2.72,5.22,2.72,8.35h.01Z"/>
  <path class="st2" d="M125,15.41l-17.72,15.79-6.08-1.96-39.84,40.42c-1.2,1.22-3.14,1.23-4.35.04h0c-1.25-1.22-1.26-3.25-.04-4.49l5.97-6.06,7.45-7.56,6.02-6.11,20.91-21.21-1.01-6.01,16.36-15.04,1.69,9.69s10.64,2.5,10.64,2.5Z"/>
</svg>