<?xml version="1.0" encoding="UTF-8"?>
<svg id="a" xmlns="http://www.w3.org/2000/svg" version="1.1" viewBox="0 0 128 128">
  <!-- Generator: Adobe Illustrator 30.1.0, SVG Export Plug-In . SVG Version: 2.1.1 Build 136)  -->
  <defs>
    <style>
      .st0 {
        fill: #f6c562;
      }
    </style>
  </defs>
  <path class="st0" d="M69.19,9.78l10.13,31.19c1,3.08,3.87,5.17,7.12,5.17h32.79c5.28,0,7.48,6.76,3.21,9.87l-26.53,19.27c-2.62,1.91-3.72,5.28-2.72,8.37l10.13,31.19c1.63,5.03-4.12,9.2-8.39,6.1l-26.53-19.27c-2.62-1.91-6.17-1.91-8.8,0l-26.53,19.27c-4.28,3.11-10.03-1.07-8.39-6.1l10.13-31.19c1-3.08-.1-6.46-2.72-8.37L5.57,56c-4.28-3.11-2.08-9.87,3.21-9.87h32.79c3.24,0,6.11-2.09,7.12-5.17l10.13-31.19c1.63-5.03,8.74-5.03,10.38,0h0Z"/>
</svg>