<?xml version="1.0" encoding="UTF-8"?><svg id="a" xmlns="http://www.w3.org/2000/svg" viewBox="0 0 128 128"><path d="M113.2,3v103.37c0,10.13-8.14,18.33-18.29,18.59-.16.03-.36.03-.53.03h-.03v-.07c-6.66-.59-13.6-6.19-13.6-13.02v-10.35H29.6V3h83.59Z" fill="#edeae9"/><path d="M94.34,124.92v.08H28.6c-.62,0-1.24-.04-1.82-.15-6.78-.98-11.97-7.28-11.97-14.94v-11.93h67.15v11.93c0,7.88,5.44,14.33,12.38,15.01Z" fill="#cecece"/><rect x="39.8" y="18.59" width="63.51" height="8.96" rx="4.48" ry="4.48" fill="#f6c562"/><rect x="39.8" y="38.54" width="63.51" height="8.96" rx="4.48" ry="4.48" fill="#f6c562"/><rect x="39.8" y="58.8" width="63.51" height="8.96" rx="4.48" ry="4.48" fill="#f6c562"/><rect x="39.8" y="78.7" width="63.51" height="8.96" rx="4.48" ry="4.48" fill="#f6c562"/></svg>