<?xml version="1.0" encoding="UTF-8"?><svg id="a" xmlns="http://www.w3.org/2000/svg" viewBox="0 0 128 128"><path d="M89.04,16.59v2.88c0,.9-.71,1.6-1.57,1.6h-46.66c-.9,0-1.6-.71-1.6-1.6v-2.88c0-.24.03-.46.05-.68h49.73c.03.22.05.43.05.68Z" fill="#f6c562"/><path d="M88.99,15.92h-.43c0,.22.03.43.03.68v2.82c0,.87-.68,1.57-1.52,1.57h-45.85c-.87,0-1.57-.71-1.57-1.57v-2.82c0-.24.03-.46.05-.68h-.43c-.03.22-.05.43-.05.68v2.88c0,.9.71,1.6,1.6,1.6h46.66c.87,0,1.57-.71,1.57-1.6v-2.88c0-.24-.03-.46-.05-.68Z" fill="#f6c562"/><path d="M94.5,6.31h-61c-8.5,0-15.42,6.86-15.42,15.33v88.03c0,8.47,6.92,15.33,15.42,15.33h61c8.52,0,15.42-6.86,15.42-15.33V21.64c0-8.47-6.9-15.33-15.42-15.33ZM39.69,15.92c-.03.22-.05.43-.05.68v2.82c0,.87.71,1.57,1.57,1.57h45.85c.84,0,1.52-.71,1.52-1.57v-2.82c0-.24-.03-.46-.03-.68h6.98c2.63,0,4.78,2.14,4.78,4.78v90.02c0,2.63-2.14,4.78-4.78,4.78h-63.03c-2.63,0-4.78-2.14-4.78-4.78V20.69c0-2.63,2.14-4.78,4.78-4.78h7.19Z" fill="#f6c562"/><path d="M100.31,20.69v90.02c0,2.63-2.14,4.78-4.78,4.78h-63.03c-2.63,0-4.78-2.14-4.78-4.78V20.69c0-2.63,2.14-4.78,4.78-4.78h7.19c-.03.22-.05.43-.05.68v2.82c0,.87.71,1.57,1.57,1.57h45.85c.84,0,1.52-.71,1.52-1.57v-2.82c0-.24-.03-.46-.03-.68h6.98c2.63,0,4.78,2.14,4.78,4.78Z" fill="#edeae9"/><path d="M91.18,16.21v3.12c0,.97-.77,1.74-1.71,1.74h-50.67c-.97,0-1.74-.77-1.74-1.74v-3.12c0-.27.03-.5.06-.74.35-2.33,2.39-4.13,4.81-4.13h16.33c-.03-.21-.06-.41-.06-.65v-3.77c0-.68.18-1.33.5-1.89.65-1.21,1.95-2.03,3.42-2.03h3.77c1.47,0,2.77.83,3.39,2.03.35.56.53,1.21.53,1.89v3.77c0,.24-.03.44-.06.65h16.6c2.42,0,4.42,1.8,4.78,4.13.03.24.06.47.06.74Z" fill="#1b367a"/></svg>